<?xml version="1.0" encoding="UTF-8" standalone="no"?>
<svg
   version="1.1"
   width="256"
   height="256"
   viewBox="0 0 256 256"
   xml:space="preserve"
   id="svg18"
   sodipodi:docname="stringtable_tree_icon.svg"
   inkscape:version="1.2.2 (732a01da63, 2022-12-09)"
   xmlns:inkscape="http://www.inkscape.org/namespaces/inkscape"
   xmlns:sodipodi="http://sodipodi.sourceforge.net/DTD/sodipodi-0.dtd"
   xmlns="http://www.w3.org/2000/svg"
   xmlns:svg="http://www.w3.org/2000/svg"><sodipodi:namedview
   id="namedview20"
   pagecolor="#ffffff"
   bordercolor="#000000"
   borderopacity="0.25"
   inkscape:showpageshadow="2"
   inkscape:pageopacity="0.0"
   inkscape:pagecheckerboard="0"
   inkscape:deskcolor="#d1d1d1"
   showgrid="false"
   inkscape:zoom="4.0117188"
   inkscape:cx="127.87537"
   inkscape:cy="107.93379"
   inkscape:window-width="2560"
   inkscape:window-height="1377"
   inkscape:window-x="-8"
   inkscape:window-y="-8"
   inkscape:window-maximized="1"
   inkscape:current-layer="g16" />

<defs
   id="defs2">
</defs>
<g
   style="stroke: none; stroke-width: 0; stroke-dasharray: none; stroke-linecap: butt; stroke-linejoin: miter; stroke-miterlimit: 10; fill: none; fill-rule: nonzero; opacity: 1;"
   transform="translate(1.4065934065934016 1.4065934065934016) scale(2.81 2.81)"
   id="g16">
	<path
   d="M 86 86"
   style="stroke: none; stroke-width: 1; stroke-dasharray: none; stroke-linecap: butt; stroke-linejoin: miter; stroke-miterlimit: 10; fill: rgb(0,0,0); fill-rule: nonzero; opacity: 1;"
   transform=" matrix(1 0 0 1 0 0) "
   stroke-linecap="round"
   id="path4" />
	<polygon
   points="60.14,65.54 66.62,65.54 63.38,56.14 "
   style="stroke: none; stroke-width: 1; stroke-dasharray: none; stroke-linecap: butt; stroke-linejoin: miter; stroke-miterlimit: 10; fill: rgb(0,0,0); fill-rule: nonzero; opacity: 1;"
   transform="  matrix(1 0 0 1 0 0) "
   id="polygon6" />
	<path
   d="M 51.242 0 H 2 C 0.896 0 0 0.896 0 2 v 49.242 c 0 1.104 0.896 2 2 2 h 49.242 c 1.104 0 2 -0.896 2 -2 V 2 C 53.242 0.896 52.347 0 51.242 0 z M 42.777 17.687 h -7.039 c -1.831 4.505 -4.818 8.995 -8.216 13.067 c 2.57 2.981 5.368 5.681 7.761 7.52 c 0.876 0.673 1.041 1.928 0.368 2.804 c -0.394 0.513 -0.987 0.782 -1.587 0.782 c -0.425 0 -0.854 -0.135 -1.217 -0.414 c -2.445 -1.879 -5.308 -4.6 -7.992 -7.66 c -2.739 2.952 -5.6 5.595 -8.239 7.731 c -0.371 0.3 -0.815 0.446 -1.258 0.446 c -0.583 0 -1.16 -0.253 -1.555 -0.741 c -0.695 -0.858 -0.563 -2.118 0.295 -2.813 c 2.629 -2.129 5.489 -4.779 8.194 -7.729 c -2.138 -2.764 -4.004 -5.657 -5.213 -8.374 c -0.449 -1.009 0.005 -2.191 1.014 -2.64 c 1.007 -0.45 2.19 0.004 2.64 1.014 c 0.974 2.187 2.478 4.571 4.233 6.908 c 2.561 -3.141 4.822 -6.511 6.407 -9.9 H 11.688 c -1.104 0 -2 -0.896 -2 -2 s 0.896 -2 2 -2 h 11.989 v -2.798 c 0 -1.104 0.896 -2 2 -2 s 2 0.896 2 2 v 2.798 h 15.1 c 1.104 0 2 0.896 2 2 S 43.882 17.687 42.777 17.687 z"
   style="stroke: none; stroke-width: 1; stroke-dasharray: none; stroke-linecap: butt; stroke-linejoin: miter; stroke-miterlimit: 10; fill: rgb(0,0,0); fill-rule: nonzero; opacity: 1;"
   transform=" matrix(1 0 0 1 0 0) "
   stroke-linecap="round"
   id="path8" />
	<path
   d="M 59.316 10.537 c -0.016 0.038 -0.023 0.079 -0.037 0.118 c -0.029 0.084 -0.06 0.166 -0.077 0.255 c -0.026 0.129 -0.04 0.262 -0.04 0.395 s 0.014 0.266 0.04 0.395 c 0.018 0.088 0.049 0.171 0.077 0.255 c 0.014 0.039 0.021 0.08 0.037 0.118 c 0.038 0.091 0.088 0.176 0.138 0.259 c 0.016 0.027 0.028 0.058 0.046 0.084 c 0.073 0.109 0.156 0.211 0.249 0.303 l 5.234 5.234 c 0.391 0.391 0.902 0.586 1.414 0.586 s 1.023 -0.195 1.414 -0.586 c 0.781 -0.781 0.781 -2.047 0 -2.828 l -1.821 -1.821 h 10.704 v 15.656 c 0 1.104 0.896 2 2 2 s 2 -0.896 2 -2 V 11.306 c 0 -1.104 -0.896 -2 -2 -2 H 65.99 l 1.821 -1.821 c 0.781 -0.781 0.781 -2.047 0 -2.828 c -0.781 -0.781 -2.047 -0.781 -2.828 0 L 59.749 9.89 c -0.093 0.092 -0.176 0.194 -0.249 0.303 c -0.018 0.027 -0.029 0.057 -0.046 0.084 C 59.404 10.362 59.354 10.446 59.316 10.537 z"
   style="stroke:#000000;stroke-width:3.55871886;stroke-dasharray:none;stroke-linecap:butt;stroke-linejoin:miter;stroke-miterlimit:10;fill:#000000;fill-rule:nonzero;opacity:1;stroke-opacity:1;fill-opacity:1"
   transform=" matrix(1 0 0 1 0 0) "
   stroke-linecap="round"
   id="path10" />
	<path
   d="M 30.685 79.459 c 0.027 -0.065 0.042 -0.133 0.062 -0.2 c 0.017 -0.058 0.039 -0.113 0.051 -0.173 c 0.051 -0.258 0.051 -0.525 0 -0.783 c -0.012 -0.06 -0.034 -0.115 -0.051 -0.173 c -0.02 -0.067 -0.035 -0.135 -0.062 -0.2 c -0.028 -0.069 -0.067 -0.131 -0.103 -0.196 c -0.027 -0.049 -0.049 -0.101 -0.081 -0.148 c -0.074 -0.11 -0.157 -0.213 -0.251 -0.307 l -5.234 -5.234 c -0.78 -0.781 -2.048 -0.781 -2.828 0 c -0.781 0.781 -0.781 2.047 0 2.828 l 1.821 1.821 H 13.306 V 61.038 c 0 -1.104 -0.896 -2 -2 -2 s -2 0.896 -2 2 v 17.656 c 0 1.104 0.896 2 2 2 H 24.01 l -1.821 1.821 c -0.781 0.781 -0.781 2.047 0 2.828 c 0.39 0.391 0.902 0.586 1.414 0.586 s 1.024 -0.195 1.414 -0.586 l 5.234 -5.234 c 0.094 -0.093 0.177 -0.196 0.251 -0.307 c 0.032 -0.047 0.053 -0.099 0.081 -0.148 C 30.618 79.59 30.657 79.528 30.685 79.459 z"
   style="stroke:#000000;stroke-width:3.55871886;stroke-dasharray:none;stroke-linecap:butt;stroke-linejoin:bevel;stroke-miterlimit:10;fill:rgb(0, 0, 0);fill-rule:nonzero;opacity:1;stroke-opacity:1"
   transform=" matrix(1 0 0 1 0 0) "
   stroke-linecap="round"
   id="path12" />
	<path
   d="M 88 36.758 H 56.881 v 17.987 c 0 1.18 -0.957 2.137 -2.137 2.137 H 36.758 V 88 c 0 1.104 0.896 2 2 2 H 88 c 1.104 0 2 -0.896 2 -2 V 38.758 C 90 37.653 89.104 36.758 88 36.758 z M 73.833 80.292 c -0.216 0.074 -0.436 0.11 -0.652 0.11 c -0.829 0 -1.604 -0.521 -1.891 -1.349 l -3.286 -9.518 h -9.249 l -3.286 9.518 c -0.36 1.045 -1.501 1.596 -2.543 1.238 c -1.045 -0.36 -1.599 -1.499 -1.238 -2.543 l 9.802 -28.385 c 0.278 -0.807 1.038 -1.348 1.891 -1.348 s 1.612 0.541 1.891 1.348 l 9.802 28.385 C 75.432 78.793 74.878 79.932 73.833 80.292 z"
   style="stroke: none; stroke-width: 1; stroke-dasharray: none; stroke-linecap: butt; stroke-linejoin: miter; stroke-miterlimit: 10; fill: rgb(0,0,0); fill-rule: nonzero; opacity: 1;"
   transform=" matrix(1 0 0 1 0 0) "
   stroke-linecap="round"
   id="path14" />
</g>
</svg>
